<svg width="57" height="56" viewBox="0 0 57 56" fill="none" xmlns="http://www.w3.org/2000/svg">
<path fill-rule="evenodd" clip-rule="evenodd" d="M42.5815 11.6196L56.322 14.1309C56.7718 14.2132 57.0691 14.6408 56.9861 15.086C56.903 15.5313 56.471 15.8256 56.0212 15.7434L42.5455 13.2804L24.8076 15.749C24.3547 15.812 23.9358 15.4997 23.8721 15.0513C23.8085 14.6029 24.124 14.1883 24.577 14.1253L42.5815 11.6196Z" fill="white"/>
<path fill-rule="evenodd" clip-rule="evenodd" d="M56.8195 30.9274C57.0349 31.3433 56.8689 31.8533 56.4487 32.0666L42.7855 39L25.1718 34.8475C24.7125 34.7392 24.4288 34.2828 24.5382 33.8281C24.6476 33.3735 25.1087 33.0927 25.568 33.201L42.5674 37.2087L55.6687 30.5604C56.0888 30.3472 56.6041 30.5115 56.8195 30.9274Z" fill="white"/>
<path fill-rule="evenodd" clip-rule="evenodd" d="M42.62 11.6875C43.0922 11.6875 43.475 12.0664 43.475 12.5338V37.9367C43.475 38.404 43.0922 38.7829 42.62 38.7829C42.1478 38.7829 41.765 38.404 41.765 37.9367V12.5338C41.765 12.0664 42.1478 11.6875 42.62 11.6875Z" fill="white"/>
<path fill-rule="evenodd" clip-rule="evenodd" d="M29.3893 0L40.5633 4.07949C40.9925 4.23617 41.2121 4.70756 41.0538 5.13237C40.8955 5.55719 40.4192 5.77455 39.9901 5.61786L29.425 1.7607L20.0692 5.60584C19.6468 5.77947 19.1621 5.58123 18.9867 5.16305C18.8113 4.74488 19.0116 4.26513 19.434 4.09151L29.3893 0Z" fill="white"/>
<path fill-rule="evenodd" clip-rule="evenodd" d="M35.3723 19.2768H40.7767V29.9981L35.3723 29.0821V19.2768ZM36.6548 20.5462V28.0116L39.4943 28.4928V20.5462H36.6548ZM26.8744 20.6182H29.7096V25.3248L26.8744 24.6615V20.6182ZM28.1568 21.8876V23.6571L28.4271 23.7204V21.8876H28.1568Z" fill="white"/>
<path fill-rule="evenodd" clip-rule="evenodd" d="M29.3507 0.0605128C29.8081 0.0605128 30.1789 0.427567 30.1789 0.880352V14.2944C30.1789 14.7472 29.8081 15.1142 29.3507 15.1142C28.8933 15.1142 28.5224 14.7472 28.5224 14.2944V0.880352C28.5224 0.427567 28.8933 0.0605128 29.3507 0.0605128Z" fill="white"/>
<path fill-rule="evenodd" clip-rule="evenodd" d="M28.0084 7.99935V14.6114C28.0084 14.962 27.7213 15.2462 27.3671 15.2462C27.013 15.2462 26.7259 14.962 26.7259 14.6114V9.70981L25.8627 9.9684V14.9188C25.8627 15.2694 25.5756 15.5536 25.2215 15.5536C24.8673 15.5536 24.5802 15.2694 24.5802 14.9188V9.02628L28.0084 7.99935Z" fill="white"/>
<path fill-rule="evenodd" clip-rule="evenodd" d="M30.6857 8.09772L34.2268 8.93018V13.6796C34.2268 14.0301 33.9397 14.3143 33.5856 14.3143C33.2314 14.3143 32.9444 14.0301 32.9444 13.6796V9.93343L31.9682 9.70395V13.987C31.9682 14.3375 31.6811 14.6217 31.327 14.6217C30.9728 14.6217 30.6857 14.3375 30.6857 13.987V8.09772Z" fill="white"/>
<path fill-rule="evenodd" clip-rule="evenodd" d="M6.23348 8.41942C6.07134 8.80841 5.90585 9.20544 5.73301 9.60844C5.09215 11.1027 4.37254 12.4119 3.72325 13.5931C3.38626 14.2062 3.06822 14.7848 2.78996 15.3369C1.95725 16.9892 1.38932 18.5524 1.38932 20.5421C1.38932 22.8301 2.75196 24.9908 4.97956 26.6081C7.2022 28.2218 10.2168 29.236 13.3316 29.236C19.834 29.236 25.0339 25.2404 25.0339 20.0671C25.0339 18.5279 24.7002 17.4014 24.0805 16.1061C23.7647 15.446 23.3773 14.7475 22.9155 13.9201C22.8954 13.884 22.8751 13.8477 22.8547 13.8112C22.41 13.0147 21.9043 12.1088 21.351 11.0384C20.9002 10.1662 20.5109 9.19481 20.1303 8.24512C20.0719 8.09932 20.0136 7.95403 19.9554 7.80969C19.5108 6.70732 19.0619 5.64588 18.5048 4.71148C17.95 3.78075 17.3063 3.00872 16.4921 2.46752C15.6867 1.93223 14.6743 1.5959 13.3316 1.5959C10.9764 1.5959 9.56482 2.53147 8.49612 3.95979C7.58448 5.1782 6.94089 6.72225 6.23348 8.41942ZM7.37966 3.14131C8.68038 1.40288 10.488 0.220691 13.3316 0.220691C14.9281 0.220691 16.2145 0.626567 17.2665 1.32581C18.3097 2.01915 19.0822 2.97398 19.7013 4.01257C20.3183 5.04749 20.8013 6.19782 21.2457 7.2998C21.3059 7.44909 21.3654 7.5973 21.4243 7.74427C21.8075 8.69972 22.1697 9.60294 22.5879 10.412C23.1309 11.4625 23.6271 12.3515 24.0726 13.1494L24.1316 13.2551C24.5894 14.0754 24.9986 14.8119 25.3362 15.5175C26.0231 16.9534 26.4232 18.2812 26.4232 20.0671C26.4232 26.294 20.2659 30.6112 13.3316 30.6112C9.9279 30.6112 6.62409 29.5076 4.15787 27.717C1.69661 25.9301 0 23.4 0 20.5421C0 18.2567 0.663839 16.475 1.54675 14.723C1.86789 14.0858 2.2072 13.4698 2.55446 12.8394C3.18175 11.7006 3.83502 10.5147 4.45416 9.07105C4.61096 8.70545 4.76554 8.33368 4.92089 7.96007C5.63009 6.25443 6.35522 4.51047 7.37966 3.14131Z" fill="white"/>
<path fill-rule="evenodd" clip-rule="evenodd" d="M13.2116 15.8423C13.5953 15.8423 13.9063 16.1501 13.9063 16.5299V35.8966C13.9063 36.2763 13.5953 36.5842 13.2116 36.5842C12.828 36.5842 12.5169 36.2763 12.5169 35.8966V16.5299C12.5169 16.1501 12.828 15.8423 13.2116 15.8423Z" fill="white"/>
<path fill-rule="evenodd" clip-rule="evenodd" d="M17.1671 21.7884C17.4656 22.0269 17.5122 22.4598 17.2712 22.7553L13.7521 27.07C13.5111 27.3655 13.0737 27.4116 12.7752 27.1731C12.4767 26.9345 12.4301 26.5016 12.6711 26.2061L16.1902 21.8914C16.4312 21.596 16.8686 21.5498 17.1671 21.7884Z" fill="white"/>
<path fill-rule="evenodd" clip-rule="evenodd" d="M9.25609 18.7008C9.5546 18.4622 9.99196 18.5084 10.233 18.8039L13.7521 23.1186C13.9931 23.414 13.9465 23.8469 13.648 24.0855C13.3495 24.3241 12.9121 24.2779 12.6711 23.9824L9.15196 19.6677C8.91096 19.3723 8.95759 18.9393 9.25609 18.7008Z" fill="white"/>
<path d="M7.68555 48.6289V50H3.39062V48.6289H7.68555ZM3.95898 41.4688V50H2.20117V41.4688H3.95898ZM10.8125 41.4688V50H9.06055V41.4688H10.8125ZM17.1504 47.7676C17.1504 47.6152 17.127 47.4785 17.0801 47.3574C17.0371 47.2324 16.9551 47.1191 16.834 47.0176C16.7129 46.9121 16.543 46.8086 16.3242 46.707C16.1055 46.6055 15.8223 46.5 15.4746 46.3906C15.0879 46.2656 14.7207 46.125 14.373 45.9688C14.0293 45.8125 13.7246 45.6309 13.459 45.4238C13.1973 45.2129 12.9902 44.9688 12.8379 44.6914C12.6895 44.4141 12.6152 44.0918 12.6152 43.7246C12.6152 43.3691 12.6934 43.0469 12.8496 42.7578C13.0059 42.4648 13.2246 42.2148 13.5059 42.0078C13.7871 41.7969 14.1191 41.6348 14.502 41.5215C14.8887 41.4082 15.3125 41.3516 15.7734 41.3516C16.4023 41.3516 16.9512 41.4648 17.4199 41.6914C17.8887 41.918 18.252 42.2285 18.5098 42.623C18.7715 43.0176 18.9023 43.4688 18.9023 43.9766H17.1562C17.1562 43.7266 17.1035 43.5078 16.998 43.3203C16.8965 43.1289 16.7402 42.9785 16.5293 42.8691C16.3223 42.7598 16.0605 42.7051 15.7441 42.7051C15.4395 42.7051 15.1855 42.752 14.9824 42.8457C14.7793 42.9355 14.627 43.0586 14.5254 43.2148C14.4238 43.3672 14.373 43.5391 14.373 43.7305C14.373 43.875 14.4082 44.0059 14.4785 44.123C14.5527 44.2402 14.6621 44.3496 14.8066 44.4512C14.9512 44.5527 15.1289 44.6484 15.3398 44.7383C15.5508 44.8281 15.7949 44.916 16.0723 45.002C16.5371 45.1426 16.9453 45.3008 17.2969 45.4766C17.6523 45.6523 17.9492 45.8496 18.1875 46.0684C18.4258 46.2871 18.6055 46.5352 18.7266 46.8125C18.8477 47.0898 18.9082 47.4043 18.9082 47.7559C18.9082 48.127 18.8359 48.459 18.6914 48.752C18.5469 49.0449 18.3379 49.293 18.0645 49.4961C17.791 49.6992 17.4648 49.8535 17.0859 49.959C16.707 50.0645 16.2832 50.1172 15.8145 50.1172C15.3926 50.1172 14.9766 50.0625 14.5664 49.9531C14.1562 49.8398 13.7832 49.6699 13.4473 49.4434C13.1152 49.2168 12.8496 48.9277 12.6504 48.5762C12.4512 48.2246 12.3516 47.8086 12.3516 47.3281H14.1152C14.1152 47.5938 14.1562 47.8184 14.2383 48.002C14.3203 48.1855 14.4355 48.334 14.584 48.4473C14.7363 48.5605 14.916 48.6426 15.123 48.6934C15.334 48.7441 15.5645 48.7695 15.8145 48.7695C16.1191 48.7695 16.3691 48.7266 16.5645 48.6406C16.7637 48.5547 16.9102 48.4355 17.0039 48.2832C17.1016 48.1309 17.1504 47.959 17.1504 47.7676ZM24.168 41.4688V50H22.416V41.4688H24.168ZM26.793 41.4688V42.8457H19.832V41.4688H26.793ZM34.8887 45.5352V45.9395C34.8887 46.5879 34.8008 47.1699 34.625 47.6855C34.4492 48.2012 34.2012 48.6406 33.8809 49.0039C33.5605 49.3633 33.1777 49.6387 32.7324 49.8301C32.291 50.0215 31.8008 50.1172 31.2617 50.1172C30.7266 50.1172 30.2363 50.0215 29.791 49.8301C29.3496 49.6387 28.9668 49.3633 28.6426 49.0039C28.3184 48.6406 28.0664 48.2012 27.8867 47.6855C27.7109 47.1699 27.623 46.5879 27.623 45.9395V45.5352C27.623 44.8828 27.7109 44.3008 27.8867 43.7891C28.0625 43.2734 28.3105 42.834 28.6309 42.4707C28.9551 42.1074 29.3379 41.8301 29.7793 41.6387C30.2246 41.4473 30.7148 41.3516 31.25 41.3516C31.7891 41.3516 32.2793 41.4473 32.7207 41.6387C33.166 41.8301 33.5488 42.1074 33.8691 42.4707C34.1934 42.834 34.4434 43.2734 34.6191 43.7891C34.7988 44.3008 34.8887 44.8828 34.8887 45.5352ZM33.1133 45.9395V45.5234C33.1133 45.0703 33.0723 44.6719 32.9902 44.3281C32.9082 43.9844 32.7871 43.6953 32.627 43.4609C32.4668 43.2266 32.2715 43.0508 32.041 42.9336C31.8105 42.8125 31.5469 42.752 31.25 42.752C30.9531 42.752 30.6895 42.8125 30.459 42.9336C30.2324 43.0508 30.0391 43.2266 29.8789 43.4609C29.7227 43.6953 29.6035 43.9844 29.5215 44.3281C29.4395 44.6719 29.3984 45.0703 29.3984 45.5234V45.9395C29.3984 46.3887 29.4395 46.7871 29.5215 47.1348C29.6035 47.4785 29.7246 47.7695 29.8848 48.0078C30.0449 48.2422 30.2402 48.4199 30.4707 48.541C30.7012 48.6621 30.9648 48.7227 31.2617 48.7227C31.5586 48.7227 31.8223 48.6621 32.0527 48.541C32.2832 48.4199 32.4766 48.2422 32.6328 48.0078C32.7891 47.7695 32.9082 47.4785 32.9902 47.1348C33.0723 46.7871 33.1133 46.3887 33.1133 45.9395ZM39.7266 46.959H37.5527V45.5879H39.7266C40.0625 45.5879 40.3359 45.5332 40.5469 45.4238C40.7578 45.3105 40.9121 45.1543 41.0098 44.9551C41.1074 44.7559 41.1562 44.5312 41.1562 44.2812C41.1562 44.0273 41.1074 43.791 41.0098 43.5723C40.9121 43.3535 40.7578 43.1777 40.5469 43.0449C40.3359 42.9121 40.0625 42.8457 39.7266 42.8457H38.1621V50H36.4043V41.4688H39.7266C40.3945 41.4688 40.9668 41.5898 41.4434 41.832C41.9238 42.0703 42.291 42.4004 42.5449 42.8223C42.7988 43.2441 42.9258 43.7266 42.9258 44.2695C42.9258 44.8203 42.7988 45.2969 42.5449 45.6992C42.291 46.1016 41.9238 46.4121 41.4434 46.6309C40.9668 46.8496 40.3945 46.959 39.7266 46.959ZM46.2578 41.4688V50H44.5059V41.4688H46.2578ZM51.7285 42.9277L49.4082 50H47.5391L50.709 41.4688H51.8984L51.7285 42.9277ZM53.6562 50L51.3301 42.9277L51.1426 41.4688H52.3438L55.5312 50H53.6562ZM53.5508 46.8242V48.2012H49.0449V46.8242H53.5508Z" fill="white"/>
</svg>
