<svg width="60" height="56" viewBox="0 0 60 56" fill="none" xmlns="http://www.w3.org/2000/svg">
<path fill-rule="evenodd" clip-rule="evenodd" d="M42.5815 11.6196L56.322 14.1309C56.7718 14.2132 57.0691 14.6408 56.9861 15.086C56.903 15.5313 56.471 15.8256 56.0212 15.7434L42.5455 13.2804L24.8076 15.749C24.3547 15.812 23.9358 15.4997 23.8721 15.0513C23.8085 14.6029 24.124 14.1883 24.577 14.1253L42.5815 11.6196Z" fill="white"/>
<path fill-rule="evenodd" clip-rule="evenodd" d="M56.8195 30.9274C57.0349 31.3433 56.8689 31.8533 56.4487 32.0666L42.7855 39L25.1718 34.8475C24.7125 34.7392 24.4288 34.2828 24.5382 33.8281C24.6476 33.3735 25.1087 33.0927 25.568 33.201L42.5674 37.2087L55.6687 30.5604C56.0888 30.3472 56.6041 30.5115 56.8195 30.9274Z" fill="white"/>
<path fill-rule="evenodd" clip-rule="evenodd" d="M42.62 11.6875C43.0922 11.6875 43.475 12.0664 43.475 12.5338V37.9367C43.475 38.404 43.0922 38.7829 42.62 38.7829C42.1478 38.7829 41.765 38.404 41.765 37.9367V12.5338C41.765 12.0664 42.1478 11.6875 42.62 11.6875Z" fill="white"/>
<path fill-rule="evenodd" clip-rule="evenodd" d="M29.3893 0L40.5633 4.07949C40.9925 4.23617 41.2121 4.70756 41.0538 5.13237C40.8955 5.55719 40.4192 5.77455 39.9901 5.61786L29.425 1.7607L20.0692 5.60584C19.6468 5.77947 19.1621 5.58123 18.9867 5.16305C18.8113 4.74488 19.0116 4.26513 19.434 4.09151L29.3893 0Z" fill="white"/>
<path fill-rule="evenodd" clip-rule="evenodd" d="M35.3723 19.2768H40.7767V29.9981L35.3723 29.0821V19.2768ZM36.6548 20.5462V28.0116L39.4943 28.4928V20.5462H36.6548ZM26.8744 20.6182H29.7096V25.3248L26.8744 24.6615V20.6182ZM28.1568 21.8876V23.6571L28.4271 23.7204V21.8876H28.1568Z" fill="white"/>
<path fill-rule="evenodd" clip-rule="evenodd" d="M29.3507 0.0605128C29.8081 0.0605128 30.1789 0.427567 30.1789 0.880352V14.2944C30.1789 14.7472 29.8081 15.1142 29.3507 15.1142C28.8933 15.1142 28.5224 14.7472 28.5224 14.2944V0.880352C28.5224 0.427567 28.8933 0.0605128 29.3507 0.0605128Z" fill="white"/>
<path fill-rule="evenodd" clip-rule="evenodd" d="M28.0084 7.99935V14.6114C28.0084 14.962 27.7213 15.2462 27.3671 15.2462C27.013 15.2462 26.7259 14.962 26.7259 14.6114V9.70981L25.8627 9.9684V14.9188C25.8627 15.2694 25.5756 15.5536 25.2215 15.5536C24.8673 15.5536 24.5802 15.2694 24.5802 14.9188V9.02628L28.0084 7.99935Z" fill="white"/>
<path fill-rule="evenodd" clip-rule="evenodd" d="M30.6857 8.09772L34.2268 8.93018V13.6796C34.2268 14.0301 33.9397 14.3143 33.5856 14.3143C33.2314 14.3143 32.9444 14.0301 32.9444 13.6796V9.93343L31.9682 9.70395V13.987C31.9682 14.3375 31.6811 14.6217 31.327 14.6217C30.9728 14.6217 30.6857 14.3375 30.6857 13.987V8.09772Z" fill="white"/>
<path fill-rule="evenodd" clip-rule="evenodd" d="M6.23348 8.41942C6.07134 8.80841 5.90585 9.20544 5.73301 9.60844C5.09215 11.1027 4.37254 12.4119 3.72325 13.5931C3.38626 14.2062 3.06822 14.7848 2.78996 15.3369C1.95725 16.9892 1.38932 18.5524 1.38932 20.5421C1.38932 22.8301 2.75196 24.9908 4.97956 26.6081C7.2022 28.2218 10.2168 29.236 13.3316 29.236C19.834 29.236 25.0339 25.2404 25.0339 20.0671C25.0339 18.5279 24.7002 17.4014 24.0805 16.1061C23.7647 15.446 23.3773 14.7475 22.9155 13.9201C22.8954 13.884 22.8751 13.8477 22.8547 13.8112C22.41 13.0147 21.9043 12.1088 21.351 11.0384C20.9002 10.1662 20.5109 9.19481 20.1303 8.24512C20.0719 8.09932 20.0136 7.95403 19.9554 7.80969C19.5108 6.70732 19.0619 5.64588 18.5048 4.71148C17.95 3.78075 17.3063 3.00872 16.4921 2.46752C15.6867 1.93223 14.6743 1.5959 13.3316 1.5959C10.9764 1.5959 9.56482 2.53147 8.49612 3.95979C7.58448 5.1782 6.94089 6.72225 6.23348 8.41942ZM7.37966 3.14131C8.68038 1.40288 10.488 0.220691 13.3316 0.220691C14.9281 0.220691 16.2145 0.626567 17.2665 1.32581C18.3097 2.01915 19.0822 2.97398 19.7013 4.01257C20.3183 5.04749 20.8013 6.19782 21.2457 7.2998C21.3059 7.44909 21.3654 7.5973 21.4243 7.74427C21.8075 8.69972 22.1697 9.60294 22.5879 10.412C23.1309 11.4625 23.6271 12.3515 24.0726 13.1494L24.1316 13.2551C24.5894 14.0754 24.9986 14.8119 25.3362 15.5175C26.0231 16.9534 26.4232 18.2812 26.4232 20.0671C26.4232 26.294 20.2659 30.6112 13.3316 30.6112C9.9279 30.6112 6.62409 29.5076 4.15787 27.717C1.69661 25.9301 0 23.4 0 20.5421C0 18.2567 0.663839 16.475 1.54675 14.723C1.86789 14.0858 2.2072 13.4698 2.55446 12.8394C3.18175 11.7006 3.83502 10.5147 4.45416 9.07105C4.61096 8.70545 4.76554 8.33368 4.92089 7.96007C5.63009 6.25443 6.35522 4.51047 7.37966 3.14131Z" fill="white"/>
<path fill-rule="evenodd" clip-rule="evenodd" d="M13.2116 15.8423C13.5953 15.8423 13.9063 16.1501 13.9063 16.5299V35.8966C13.9063 36.2763 13.5953 36.5842 13.2116 36.5842C12.828 36.5842 12.5169 36.2763 12.5169 35.8966V16.5299C12.5169 16.1501 12.828 15.8423 13.2116 15.8423Z" fill="white"/>
<path fill-rule="evenodd" clip-rule="evenodd" d="M17.1671 21.7884C17.4656 22.0269 17.5122 22.4598 17.2712 22.7553L13.7521 27.07C13.5111 27.3655 13.0737 27.4116 12.7752 27.1731C12.4767 26.9345 12.4301 26.5016 12.6711 26.2061L16.1902 21.8914C16.4312 21.596 16.8686 21.5498 17.1671 21.7884Z" fill="white"/>
<path fill-rule="evenodd" clip-rule="evenodd" d="M9.25609 18.7008C9.5546 18.4622 9.99196 18.5084 10.233 18.8039L13.7521 23.1186C13.9931 23.414 13.9465 23.8469 13.648 24.0855C13.3495 24.3241 12.9121 24.2779 12.6711 23.9824L9.15196 19.6677C8.91096 19.3723 8.95759 18.9393 9.25609 18.7008Z" fill="white"/>
<path d="M1.14639 50V41.6H3.09039V48.416H7.30239V50H1.14639ZM8.6503 50V41.6H10.5943V50H8.6503ZM15.5978 50.144C14.9258 50.144 14.2818 50.056 13.6658 49.88C13.0498 49.696 12.5538 49.46 12.1778 49.172L12.8378 47.708C13.1978 47.964 13.6218 48.176 14.1098 48.344C14.6058 48.504 15.1058 48.584 15.6098 48.584C15.9938 48.584 16.3018 48.548 16.5338 48.476C16.7738 48.396 16.9498 48.288 17.0618 48.152C17.1738 48.016 17.2298 47.86 17.2298 47.684C17.2298 47.46 17.1418 47.284 16.9658 47.156C16.7898 47.02 16.5578 46.912 16.2698 46.832C15.9818 46.744 15.6618 46.664 15.3098 46.592C14.9658 46.512 14.6178 46.416 14.2658 46.304C13.9218 46.192 13.6058 46.048 13.3178 45.872C13.0298 45.696 12.7938 45.464 12.6098 45.176C12.4338 44.888 12.3458 44.52 12.3458 44.072C12.3458 43.592 12.4738 43.156 12.7298 42.764C12.9938 42.364 13.3858 42.048 13.9058 41.816C14.4338 41.576 15.0938 41.456 15.8858 41.456C16.4138 41.456 16.9338 41.52 17.4458 41.648C17.9578 41.768 18.4098 41.952 18.8018 42.2L18.2018 43.676C17.8098 43.452 17.4178 43.288 17.0258 43.184C16.6338 43.072 16.2498 43.016 15.8738 43.016C15.4978 43.016 15.1898 43.06 14.9498 43.148C14.7098 43.236 14.5378 43.352 14.4338 43.496C14.3298 43.632 14.2778 43.792 14.2778 43.976C14.2778 44.192 14.3658 44.368 14.5418 44.504C14.7178 44.632 14.9498 44.736 15.2378 44.816C15.5258 44.896 15.8418 44.976 16.1858 45.056C16.5378 45.136 16.8858 45.228 17.2298 45.332C17.5818 45.436 17.9018 45.576 18.1898 45.752C18.4778 45.928 18.7098 46.16 18.8858 46.448C19.0698 46.736 19.1618 47.1 19.1618 47.54C19.1618 48.012 19.0298 48.444 18.7658 48.836C18.5018 49.228 18.1058 49.544 17.5778 49.784C17.0578 50.024 16.3978 50.144 15.5978 50.144ZM22.363 50V43.184H19.675V41.6H26.995V43.184H24.307V50H22.363ZM32.2537 50.144C31.5897 50.144 30.9737 50.036 30.4057 49.82C29.8457 49.604 29.3577 49.3 28.9417 48.908C28.5337 48.516 28.2137 48.056 27.9817 47.528C27.7577 47 27.6457 46.424 27.6457 45.8C27.6457 45.176 27.7577 44.6 27.9817 44.072C28.2137 43.544 28.5377 43.084 28.9537 42.692C29.3697 42.3 29.8577 41.996 30.4177 41.78C30.9777 41.564 31.5857 41.456 32.2417 41.456C32.9057 41.456 33.5137 41.564 34.0657 41.78C34.6257 41.996 35.1097 42.3 35.5177 42.692C35.9337 43.084 36.2577 43.544 36.4897 44.072C36.7217 44.592 36.8377 45.168 36.8377 45.8C36.8377 46.424 36.7217 47.004 36.4897 47.54C36.2577 48.068 35.9337 48.528 35.5177 48.92C35.1097 49.304 34.6257 49.604 34.0657 49.82C33.5137 50.036 32.9097 50.144 32.2537 50.144ZM32.2417 48.488C32.6177 48.488 32.9617 48.424 33.2737 48.296C33.5937 48.168 33.8737 47.984 34.1137 47.744C34.3537 47.504 34.5377 47.22 34.6657 46.892C34.8017 46.564 34.8697 46.2 34.8697 45.8C34.8697 45.4 34.8017 45.036 34.6657 44.708C34.5377 44.38 34.3537 44.096 34.1137 43.856C33.8817 43.616 33.6057 43.432 33.2857 43.304C32.9657 43.176 32.6177 43.112 32.2417 43.112C31.8657 43.112 31.5177 43.176 31.1977 43.304C30.8857 43.432 30.6097 43.616 30.3697 43.856C30.1297 44.096 29.9417 44.38 29.8057 44.708C29.6777 45.036 29.6137 45.4 29.6137 45.8C29.6137 46.192 29.6777 46.556 29.8057 46.892C29.9417 47.22 30.1257 47.504 30.3577 47.744C30.5977 47.984 30.8777 48.168 31.1977 48.296C31.5177 48.424 31.8657 48.488 32.2417 48.488ZM38.5487 50V41.6H42.1847C42.9367 41.6 43.5847 41.724 44.1287 41.972C44.6727 42.212 45.0927 42.56 45.3887 43.016C45.6847 43.472 45.8327 44.016 45.8327 44.648C45.8327 45.272 45.6847 45.812 45.3887 46.268C45.0927 46.724 44.6727 47.076 44.1287 47.324C43.5847 47.564 42.9367 47.684 42.1847 47.684H39.6287L40.4927 46.808V50H38.5487ZM40.4927 47.024L39.6287 46.1H42.0767C42.6767 46.1 43.1247 45.972 43.4207 45.716C43.7167 45.46 43.8647 45.104 43.8647 44.648C43.8647 44.184 43.7167 43.824 43.4207 43.568C43.1247 43.312 42.6767 43.184 42.0767 43.184H39.6287L40.4927 42.26V47.024ZM47.4706 50V41.6H49.4146V50H47.4706ZM50.5541 50L54.2981 41.6H56.2181L59.9741 50H57.9341L54.8621 42.584H55.6301L52.5461 50H50.5541ZM52.4261 48.2L52.9421 46.724H57.2621L57.7901 48.2H52.4261Z" fill="white"/>
</svg>
