<?xml version="1.0" encoding="UTF-8" standalone="no"?>
<svg
   width="45.174423"
   height="45.174416"
   viewBox="0 0 45.174423 45.174416"
   fill="none"
   version="1.1"
   id="svg29"
   xmlns="http://www.w3.org/2000/svg"
   xmlns:svg="http://www.w3.org/2000/svg">
  <defs
     id="defs27" />
  <g
     id="layer1"
     transform="translate(-13.958635,-14.810019)">
    <path
       style="fill:#ffffff;fill-opacity:1;stroke:none;stroke-width:2.44149;stroke-dasharray:none;stroke-opacity:1"
       id="path7691"
       d="M 14.117096,40.068043 A 22.58721,22.58721 0 0 1 33.873063,14.968713 22.58721,22.58721 0 0 1 58.974125,34.722478 22.58721,22.58721 0 0 1 39.222562,59.825274 22.58721,22.58721 0 0 1 14.118034,40.075913" />
  </g>
  <g
     id="layer2"
     transform="translate(-13.958635,-14.810019)">
    <g
       id="g7635"
       transform="translate(5.9867249,6.8653472)">
      <ellipse
         style="fill:none;fill-opacity:1;stroke:#f56742;stroke-width:2.447;stroke-dasharray:none;stroke-opacity:1"
         id="path251"
         cx="30.59886"
         cy="24.352709"
         rx="7.9077573"
         ry="7.9371581" />
      <path
         style="fill:none;fill-opacity:1;stroke:#f56742;stroke-width:2.50617;stroke-dasharray:none;stroke-opacity:1"
         id="path7118"
         d="m 44.023413,-45.853767 a 13.464302,13.446903 0 0 1 -6.731999,11.660856 13.464302,13.446903 0 0 1 -13.477663,-0.0075 13.464302,13.446903 0 0 1 -6.718898,-11.66839"
         transform="scale(1,-1)" />
    </g>
  </g>
</svg>
